<svg width="50" height="50" viewBox="0 0 50 50" fill="none" xmlns="http://www.w3.org/2000/svg">
<rect x="2" y="2" width="46" height="46" rx="14" stroke="black" stroke-width="4"/>
<path d="M17.3848 35.3296C18.9316 35.3296 20.2588 35.0967 21.3662 34.6309C22.4736 34.1562 23.3262 33.4839 23.9238 32.6138C24.5215 31.7349 24.8203 30.7065 24.8203 29.5288V29.5156C24.8203 28.0303 24.3677 26.8657 23.4624 26.022C22.5571 25.1694 21.1113 24.5366 19.125 24.1235L17.0815 23.7017C15.939 23.4556 15.0952 23.126 14.5503 22.7129C14.0142 22.2998 13.7461 21.7593 13.7461 21.0913V21.0781C13.7461 20.5596 13.8911 20.1113 14.1812 19.7334C14.48 19.3467 14.8975 19.0435 15.4336 18.8237C15.9785 18.604 16.6201 18.4941 17.3584 18.4941C18.0703 18.4941 18.6987 18.604 19.2437 18.8237C19.7886 19.0347 20.228 19.3379 20.562 19.7334C20.896 20.1201 21.1025 20.5903 21.1816 21.144L21.208 21.3022H24.4512L24.438 21.0781C24.3765 19.9971 24.0469 19.0479 23.4492 18.2305C22.8604 17.4131 22.0474 16.7803 21.0103 16.332C19.9819 15.875 18.7734 15.6465 17.3848 15.6465C16.0225 15.6465 14.8096 15.8838 13.7461 16.3584C12.6826 16.8242 11.8477 17.479 11.2412 18.3228C10.6436 19.1577 10.3403 20.1333 10.3315 21.2495V21.2627C10.3315 22.6777 10.793 23.8291 11.7158 24.7168C12.6475 25.6045 14.0493 26.2417 15.9214 26.6284L17.9648 27.0503C19.1953 27.314 20.0742 27.6523 20.6016 28.0654C21.1377 28.4785 21.4058 29.041 21.4058 29.7529V29.7661C21.4058 30.311 21.2432 30.79 20.918 31.2031C20.6016 31.6074 20.1533 31.9238 19.5732 32.1523C18.9932 32.3721 18.3032 32.4819 17.5034 32.4819C16.7036 32.4819 15.9961 32.3721 15.3809 32.1523C14.7656 31.9326 14.269 31.625 13.8911 31.2295C13.5132 30.834 13.2803 30.3682 13.1924 29.832L13.166 29.6606H9.90967L9.92285 29.8716C10.002 31.0054 10.3535 31.981 10.9775 32.7983C11.6104 33.6157 12.4717 34.2441 13.5615 34.6836C14.6514 35.1143 15.9258 35.3296 17.3848 35.3296ZM27.4307 35H39.731V32.1392H30.8188V26.7075H39.2432V23.9653H30.8188V18.8369H39.731V15.9761H27.4307V35Z" fill="#161618"/>
</svg>
